<svg width="32" height="32" viewBox="0 0 32 32" fill="none" xmlns="http://www.w3.org/2000/svg">
<mask id="mask0_233_1414" style="mask-type:alpha" maskUnits="userSpaceOnUse" x="7" y="7" width="18" height="18">
<path d="M20.8854 8.9976C21.1599 8.73111 21.5331 8.58063 21.9231 8.58063C22.3132 8.58063 22.6864 8.73111 22.9609 8.9976C23.2352 9.26395 23.3885 9.62424 23.3885 9.99894C23.3885 10.3736 23.2352 10.7339 22.9609 11.0003C22.6864 11.2668 22.3132 11.4172 21.9231 11.4172C21.5331 11.4172 21.1599 11.2668 20.8854 11.0003C20.611 10.7339 20.4578 10.3736 20.4578 9.99894C20.4578 9.62424 20.611 9.26395 20.8854 8.9976ZM19.7445 8.22358C19.3161 8.72079 19.0808 9.34913 19.0809 9.99879V9.9988C19.0806 10.2364 19.1119 10.4728 19.1737 10.7022L12.1571 13.866C11.7882 13.4808 11.3135 13.2057 10.7887 13.0736C10.2275 12.9325 9.63523 12.9615 9.09139 13.157C8.54751 13.3525 8.07759 13.7053 7.74535 14.1687C7.41307 14.6321 7.23461 15.1838 7.23461 15.7494C7.23461 16.315 7.41307 16.8667 7.74535 17.3301C8.07759 17.7935 8.54751 18.1463 9.09139 18.3418C9.63523 18.5373 10.2275 18.5663 10.7887 18.4252C11.3135 18.2932 11.7882 18.0181 12.1571 17.6328L19.1735 20.7965C19.006 21.4135 19.0629 22.0694 19.3371 22.652C19.6305 23.2754 20.1512 23.7697 20.7972 24.0403C21.4431 24.3108 22.1691 24.3389 22.835 24.1191C23.5009 23.8994 24.0602 23.4471 24.4037 22.8486C24.7472 22.2499 24.8497 21.5482 24.691 20.8798C24.5322 20.2115 24.1238 19.6253 23.5463 19.2341C22.969 18.843 22.2633 18.6742 21.5658 18.7598C20.9057 18.8408 20.2963 19.1443 19.8433 19.6165L12.8267 16.4528C12.9515 15.9917 12.9515 15.5071 12.8267 15.046L19.8432 11.8823C20.2705 12.3285 20.8381 12.6252 21.4578 12.7252C22.1145 12.8312 22.7889 12.7097 23.3633 12.3814C23.9377 12.0531 24.376 11.5386 24.6003 10.9269C24.8246 10.3152 24.8202 9.64617 24.5879 9.03727C24.3557 8.42848 23.9107 7.9194 23.3321 7.59824C22.7535 7.27712 22.0775 7.16395 21.4222 7.27803C20.7669 7.39211 20.1728 7.72643 19.7445 8.22358ZM9.03942 14.7481C9.31391 14.4816 9.68712 14.3311 10.0772 14.3311C10.4672 14.3311 10.8404 14.4816 11.1149 14.7481C11.3892 15.0144 11.5425 15.3747 11.5425 15.7494C11.5425 16.1241 11.3892 16.4844 11.1149 16.7507C10.8404 17.0172 10.4672 17.1677 10.0772 17.1677C9.68712 17.1677 9.31391 17.0172 9.03942 16.7507C8.76508 16.4844 8.6118 16.1241 8.6118 15.7494C8.6118 15.3747 8.76508 15.0144 9.03942 14.7481ZM20.8854 20.4985C21.1599 20.232 21.5331 20.0816 21.9231 20.0816C22.3132 20.0816 22.6864 20.232 22.9609 20.4985C23.2352 20.7649 23.3885 21.1252 23.3885 21.4999C23.3885 21.8746 23.2352 22.2349 22.9609 22.5012C22.6864 22.7677 22.3132 22.9182 21.9231 22.9182C21.5331 22.9182 21.1599 22.7677 20.8854 22.5012C20.611 22.2349 20.4578 21.8746 20.4578 21.4999C20.4578 21.1252 20.611 20.7649 20.8854 20.4985Z" fill="black" stroke="black" stroke-width="0.3"/>
</mask>
<g mask="url(#mask0_233_1414)">
<rect x="3.54231" y="-0.15" width="29.6561" height="28.6077" fill="black" stroke="black" stroke-width="0.3"/>
</g>
</svg>
