<svg width="37" height="30" viewBox="0 0 37 30" fill="none" xmlns="http://www.w3.org/2000/svg">
<path d="M36.0958 3.44131C34.7778 4.02285 33.3621 4.41578 31.8737 4.59339C33.4094 3.67832 34.5584 2.23811 35.1061 0.541487C33.6633 1.39492 32.0841 1.99564 30.4374 2.31753C29.33 1.1401 27.8632 0.35968 26.2648 0.0974348C24.6663 -0.16481 23.0256 0.105792 21.5974 0.867231C20.1693 1.62867 19.0335 2.83834 18.3664 4.30844C17.6994 5.77854 17.5384 7.42681 17.9085 8.99735C14.9849 8.85117 12.1248 8.09447 9.51391 6.77636C6.903 5.45824 4.59959 3.60817 2.75318 1.34621C2.12184 2.4307 1.75882 3.68807 1.75882 5.02718C1.75812 6.23268 2.05623 7.41972 2.62672 8.48298C3.19721 9.54623 4.02242 10.4528 5.02916 11.1223C3.86162 11.0853 2.71983 10.7712 1.69884 10.206V10.3003C1.69873 11.9911 2.28604 13.6298 3.36113 14.9385C4.43622 16.2471 5.93287 17.145 7.59713 17.4799C6.51404 17.7718 5.3785 17.8148 4.27628 17.6057C4.74584 19.0605 5.66049 20.3327 6.89218 21.2441C8.12388 22.1555 9.61097 22.6606 11.1453 22.6886C8.54072 24.7246 5.32413 25.8291 2.01293 25.8242C1.42639 25.8244 0.840343 25.7903 0.257812 25.722C3.61886 27.874 7.53137 29.0161 11.5272 29.0117C25.0536 29.0117 32.4482 17.8556 32.4482 8.18006C32.4482 7.86571 32.4403 7.54822 32.4261 7.23388C33.8644 6.19807 35.106 4.91543 36.0926 3.44603L36.0958 3.44131V3.44131Z" fill="white"/>
</svg>
