<svg width="29" height="29" viewBox="0 0 29 29" fill="none" xmlns="http://www.w3.org/2000/svg">
<path d="M28.1581 8.92058C28.1423 7.73249 27.9198 6.55621 27.5008 5.44435C27.1374 4.50651 26.5824 3.65478 25.8712 2.94359C25.16 2.23239 24.3083 1.67737 23.3704 1.31398C22.2729 0.901971 21.1134 0.679192 19.9413 0.655126C18.4322 0.587672 17.9537 0.568848 14.123 0.568848C10.2922 0.568848 9.80121 0.568848 8.30311 0.655126C7.13154 0.679369 5.97257 0.902145 4.87551 1.31398C3.93752 1.67711 3.08566 2.23205 2.37443 2.94328C1.6632 3.6545 1.10827 4.50636 0.74513 5.44435C0.332298 6.54108 0.110002 7.70031 0.0878469 8.87195C0.020393 10.3826 0 10.8611 0 14.6918C0 18.5226 -1.16877e-08 19.012 0.0878469 20.5117C0.111377 21.6851 0.332563 22.8428 0.74513 23.9424C1.10888 24.8801 1.66422 25.7316 2.37569 26.4426C3.08715 27.1535 3.93909 27.7082 4.87707 28.0712C5.97114 28.4998 7.1303 28.7385 8.30467 28.7771C9.81533 28.8446 10.2938 28.865 14.1245 28.865C17.9553 28.865 18.4463 28.865 19.9444 28.7771C21.1165 28.754 22.276 28.5318 23.3736 28.1198C24.3112 27.756 25.1627 27.2009 25.8738 26.4897C26.585 25.7786 27.1401 24.9271 27.5039 23.9895C27.9165 22.8914 28.1377 21.7337 28.1612 20.5587C28.2287 19.0496 28.2491 18.5712 28.2491 14.7389C28.2459 10.9081 28.2459 10.4218 28.1581 8.92058V8.92058ZM14.1136 21.936C10.1071 21.936 6.86147 18.6904 6.86147 14.684C6.86147 10.6775 10.1071 7.43189 14.1136 7.43189C16.0369 7.43189 17.8815 8.19595 19.2415 9.55597C20.6016 10.916 21.3656 12.7606 21.3656 14.684C21.3656 16.6073 20.6016 18.4519 19.2415 19.812C17.8815 21.172 16.0369 21.936 14.1136 21.936V21.936ZM21.6543 8.85469C21.4321 8.8549 21.2122 8.8113 21.0069 8.72639C20.8016 8.64148 20.6151 8.51693 20.4581 8.35986C20.301 8.20279 20.1764 8.01629 20.0915 7.81102C20.0066 7.60576 19.963 7.38577 19.9632 7.16364C19.9632 6.94167 20.0069 6.72188 20.0919 6.5168C20.1768 6.31173 20.3013 6.1254 20.4583 5.96844C20.6152 5.81149 20.8016 5.68698 21.0066 5.60204C21.2117 5.51709 21.4315 5.47337 21.6535 5.47337C21.8755 5.47337 22.0953 5.51709 22.3003 5.60204C22.5054 5.68698 22.6917 5.81149 22.8487 5.96844C23.0056 6.1254 23.1301 6.31173 23.2151 6.5168C23.3 6.72188 23.3438 6.94167 23.3438 7.16364C23.3438 8.09858 22.5876 8.85469 21.6543 8.85469Z" fill="white"/>
<path d="M14.1131 19.4025C16.7148 19.4025 18.8239 17.2934 18.8239 14.6917C18.8239 12.0901 16.7148 9.98096 14.1131 9.98096C11.5114 9.98096 9.40234 12.0901 9.40234 14.6917C9.40234 17.2934 11.5114 19.4025 14.1131 19.4025Z" fill="white"/>
</svg>
