<svg width="38" height="26" viewBox="0 0 38 26" fill="none" xmlns="http://www.w3.org/2000/svg">
<path d="M37.211 4.0777C36.9978 3.31725 36.5826 2.62877 36.0094 2.08546C35.42 1.52544 34.6976 1.12485 33.9105 0.92149C30.9645 0.144986 19.1616 0.144986 19.1616 0.144986C14.2411 0.0890034 9.32185 0.335229 4.43155 0.882272C3.64437 1.10066 2.92335 1.5102 2.33264 2.07448C1.75222 2.63294 1.33181 3.32159 1.11219 4.07614C0.584631 6.91821 0.328305 9.80398 0.346671 12.6945C0.327847 15.5825 0.583544 18.4673 1.11219 21.313C1.32711 22.0644 1.74595 22.7499 2.32793 23.3036C2.90992 23.8574 3.63466 24.2574 4.43155 24.4692C7.41678 25.2441 19.1616 25.2441 19.1616 25.2441C24.0883 25.3002 29.0139 25.0539 33.9105 24.5068C34.6976 24.3035 35.42 23.9029 36.0094 23.3429C36.5824 22.7996 36.9971 22.1111 37.2094 21.3506C37.7508 18.5096 38.014 15.6227 37.9954 12.7306C38.0361 9.82635 37.7732 6.92577 37.211 4.07614V4.0777ZM15.4093 18.0658V7.3249L25.2293 12.6961L15.4093 18.0658Z" fill="white"/>
</svg>
