<?xml version="1.0" encoding="utf-8"?><svg viewBox="0 0 512 512" xmlns="http://www.w3.org/2000/svg" xmlns:xlink="http://www.w3.org/1999/xlink"><style>:root>svg{display:none}:root>svg:target{display:block}</style><svg viewBox="0 0 20 40" id="banner-chevron" xmlns="http://www.w3.org/2000/svg"><path d="M0 19.736c0 .223.087.437.243.595l18.323 18.49a.828.828 0 001.178-.02.846.846 0 000-1.168L2.011 19.736 19.746 1.842a.846.846 0 00.02-1.189.828.828 0 00-1.198 0L.245 19.143a.845.845 0 00-.245.593z"/></svg><svg fill="none" viewBox="0 0 10 7" id="chevron" xmlns="http://www.w3.org/2000/svg"><path stroke="#000" d="M8.856 1.08C7.583 2.379 6.31 3.622 5.036 4.99a.08.08 0 10.116-.001C3.916 3.704 2.68 2.45 1.445 1.19c-.238-.243-.608.123-.37.366l3.837 3.908c.1.103.269.1.37-.003 1.314-1.34 2.629-2.673 3.944-4.014.238-.243-.131-.61-.37-.367z"/></svg><svg fill="none" viewBox="0 0 16 16" id="close" xmlns="http://www.w3.org/2000/svg"><path d="M1.29 14.772L14.942 1M1.056 1.162L14.71 14.934"/></svg><svg viewBox="0 0 18 18" id="download" xmlns="http://www.w3.org/2000/svg"><path d="M8.99 0a.643.643 0 00-.632.643v.01-.001 11.3L4.316 7.906a.643.643 0 00-.908.91l5.138 5.14a.114.114 0 00.008.006v.002a.533.533 0 00.02.018h.001l.027.024v.001l.018.012.001.002.03.02.003.003a.326.326 0 00.023.014l.003.001.027.015.003.002a.178.178 0 00.023.01l.004.002a.617.617 0 00.026.012l.004.001c.006.003.017.007.029.01l.004.002a.41.41 0 00.023.008h.004c.006.002.017.006.029.008h.004a.257.257 0 00.026.006h.004a.405.405 0 00.028.005h.003c.008.002.02.003.03.003h.002l.033.001h.032a.66.66 0 00.057-.004h-.003.008-.004a.627.627 0 00.044-.007h-.004a.974.974 0 00.035-.007l-.004.001a.46.46 0 00.028-.007l-.004.001.042-.013-.004.001c.012-.003.02-.007.028-.01l-.004.002a.383.383 0 00.037-.016l-.004.001a.902.902 0 00.053-.025l-.004.001a.015.015 0 00.004-.003l-.002.002a.51.51 0 00.039-.024l-.002.002.027-.02-.002.002a.709.709 0 00.042-.034l.003-.003.03-.026 5.138-5.14a.642.642 0 00-.448-1.104h-.02.001a.641.641 0 00-.441.194l-4.041 4.044V.653.645A.642.642 0 009 .002h-.01V0zM.652 16.715H.642a.642.642 0 100 1.285h16.716a.642.642 0 100-1.285H.65z"/></svg><svg fill="none" viewBox="0 0 20 20" id="facebook" xmlns="http://www.w3.org/2000/svg"><path d="M15 1.667h-2.5a4.167 4.167 0 00-4.166 4.166v2.5h-2.5v3.333h2.5v6.667h3.333v-6.666h2.5l.834-3.334h-3.334v-2.5A.833.833 0 0112.501 5H15V1.667z" fill="#000"/></svg><svg fill="none" viewBox="0 0 20 20" id="instagram" xmlns="http://www.w3.org/2000/svg"><path d="M5.834 1.667h8.333a4.167 4.167 0 014.167 4.166v8.334a4.167 4.167 0 01-4.167 4.166H5.834a4.167 4.167 0 01-4.167-4.166V5.832a4.167 4.167 0 014.167-4.167z" fill="#000"/><path d="M14.584 5.417h.008" stroke="#000" stroke-width="2" stroke-linecap="round" stroke-linejoin="round"/><circle cx="10" cy="10" r="3" fill="#000" stroke="#fff" stroke-width="2"/></svg><svg viewBox="0 0 512 512" id="mail" xmlns="http://www.w3.org/2000/svg"><path d="M467 61H45C20.218 61 0 81.196 0 106v300c0 24.72 20.128 45 45 45h422c24.72 0 45-20.128 45-45V106c0-24.72-20.128-45-45-45zm-6.214 30L256.954 294.833 51.359 91h409.427zM30 399.788V112.069l144.479 143.24L30 399.788zM51.213 421l144.57-144.57 50.657 50.222c5.864 5.814 15.327 5.795 21.167-.046L317 277.213 460.787 421H51.213zM482 399.787L338.213 256 482 112.212v287.575z"/></svg><svg viewBox="0 0 18 8" id="pagination-arrow" xmlns="http://www.w3.org/2000/svg"><path d="M17.354 4.354a.5.5 0 000-.708L14.172.464a.5.5 0 10-.708.708L16.293 4l-2.829 2.828a.5.5 0 10.708.708l3.182-3.182zM0 4.5h17v-1H0v1z"/></svg><svg fill="none" viewBox="0 0 45 34" id="quote-mark" xmlns="http://www.w3.org/2000/svg"><path d="M44.376 0l.516 1.548c-8.027 2.981-12.04 6.479-12.04 10.492 0 1.835.172 2.981.516 3.44 5.963 1.032 8.944 4.415 8.944 10.148 0 2.179-.86 4.128-2.58 5.848-1.605 1.605-3.555 2.408-5.848 2.408-2.867 0-5.217-.975-7.052-2.924-1.835-2.064-2.752-4.93-2.752-8.6 0-10.55 6.765-18.003 20.296-22.36zm-24.08 0l.516 1.548C12.785 4.529 8.772 8.027 8.772 12.04c0 1.835.172 2.981.516 3.44 5.963 1.032 8.944 4.415 8.944 10.148 0 2.179-.86 4.128-2.58 5.848-1.605 1.605-3.555 2.408-5.848 2.408-2.867 0-5.217-.975-7.052-2.924C.917 28.896 0 26.03 0 22.36 0 11.81 6.765 4.357 20.296 0z" fill="#B1CED2"/></svg><svg fill="none" viewBox="0 0 19 19" id="search" xmlns="http://www.w3.org/2000/svg"><path stroke="#000" stroke-linecap="round" stroke-linejoin="round" stroke-width="1.5" d="M9.222 15.444A6.222 6.222 0 109.222 3a6.222 6.222 0 000 12.444zM17 16.997l-3.383-3.383"/></svg><svg viewBox="0 0 22 18" id="shop-icon" xmlns="http://www.w3.org/2000/svg"><path d="M14.294 4.343L7.57.97.953 3.75l.145 13.29 6.63-3.397 6.702 3.252 6.632-3.274-.14-12.798-6.628 3.52zM2.082 15.588L1.96 4.23l5.143-2.163.12 10.888-.03.014-5.11 2.619zm6.139-2.643L8.104 2.182l5.655 2.84.091.045.117 10.665-5.717-2.774-.029-.013zm11.836.234l-5.09 2.513-.117-10.686 5.089-2.703.118 10.876z"/></svg><svg viewBox="0 0 512.002 512.002" id="star" xmlns="http://www.w3.org/2000/svg"><path d="M511.267 197.258a14.995 14.995 0 00-12.107-10.209l-158.723-23.065-70.985-143.827a14.998 14.998 0 00-26.901 0l-70.988 143.827-158.72 23.065a14.998 14.998 0 00-8.312 25.585l114.848 111.954-27.108 158.083a14.999 14.999 0 0021.763 15.812l141.967-74.638 141.961 74.637a15 15 0 0021.766-15.813l-27.117-158.081 114.861-111.955a14.994 14.994 0 003.795-15.375z"/></svg><svg fill="none" viewBox="0 0 20 20" id="twitter" xmlns="http://www.w3.org/2000/svg"><path d="M19.167 2.5a9.083 9.083 0 01-2.616 1.275 3.733 3.733 0 00-6.55 2.5v.833a8.883 8.883 0 01-7.5-3.775s-3.334 7.5 4.166 10.834a9.7 9.7 0 01-5.833 1.666c7.5 4.167 16.667 0 16.667-9.583-.001-.232-.023-.464-.067-.692A6.433 6.433 0 0019.167 2.5z" fill="#000"/></svg></svg>