<svg width="107" height="103" viewBox="0 0 107 103" fill="none" xmlns="http://www.w3.org/2000/svg">
<mask id="mask0_373_226" style="mask-type:alpha" maskUnits="userSpaceOnUse" x="0" y="0" width="107" height="103">
<path d="M11.99 30.8331L15.55 36.3219L16.03 36.1519L14.42 29.5534L20.94 27.6938V27.1939L14.69 26.904V13.9069H28.28V19.7956L29.02 19.9556L31.02 13.7969L37.45 15.0866L37.64 14.6567L32.5 11.4175L39.38 0L51.21 6.63852L48.21 12.1873L48.59 12.5372L53.68 7.92822L58.62 12.5672L59.14 12.2573L56.14 6.75849L67.99 0.0999685C70.31 3.94911 72.57 7.70828 74.9 11.5574L68.96 15.1466L69.13 15.5365L76.27 13.8769L78.13 20.0255L78.8 19.9455L79.11 14.3668H92.37V27.064H86.31L86.18 27.8838L92.67 29.8833L91.11 36.3219L91.56 36.5718L95.06 31.263L106.95 37.8715L100.09 49.349L94.39 46.3497L93.91 46.9595L99.73 51.3385L93.73 56.0375L94.37 56.8873L99.97 53.888C102.27 57.6971 104.49 61.3963 106.89 65.3654L95.01 72.0139L91.59 66.8251L91.07 67.015L92.6 73.2537L86.1 75.2532L86.17 75.8331L92.36 76.143V88.7802H78.75L78.46 83.4114C78.15 83.4114 77.82 83.4114 77.79 83.4814C75.59 89.0201 75.59 89.0201 68 87.3905L74.52 91.3896L67.67 102.827L55.71 96.2485L58.8 90.6698L58.34 90.2799L53.34 94.8888L48.83 90.9397L48.24 91.2596L50.8 96.1286L39 102.777L32.07 91.3596L37.77 87.8704L37.6 87.4405L30.81 89.0201L28.69 82.6116L28.03 82.7115V88.7102H14.46V75.6231L20.3 75.3732L20.45 74.9233L14.21 72.9837L15.86 66.6351L15.37 66.3652L11.9 71.624L0 65.0355L6.88998 53.548L12.56 56.5474L12.91 56.1375L7.95999 50.9186L13.35 47.2495L12.46 46.0997L7.03998 49.0391C4.81998 45.3499 2.6 41.6707 0.119995 37.5716L11.99 30.8331ZM28.27 75.4632L40.72 72.4638C41.91 76.5729 42.98 80.2521 44.17 84.3712L53.33 75.8231L62.52 84.4212C63.75 80.1521 64.81 76.423 65.93 72.5938L78.42 75.5931C77.27 71.2641 76.28 67.5949 75.27 63.7558L87.5 60.3565L78.5 51.4585L87.81 42.7704L75.39 39.3612C76.44 35.4121 77.39 31.7329 78.54 27.4339L66.23 30.4332L62.71 18.5958L53.55 27.1539L44.38 18.5359L40.97 30.2532L28.54 27.3139L31.6 39.1413L19.46 42.4805L28.35 51.2886L19.06 60.0566L31.52 63.5458L28.27 75.4632ZM40.27 29.1535L43.42 17.846L31.74 14.8467L28.57 26.0542L40.27 29.1535ZM10.47 50.4687L18.47 59.4667L25.96 51.3485L18.38 42.9404L10.47 50.4687ZM76.55 64.3456C77.48 67.8149 78.27 70.9842 79.25 74.1035C79.4235 74.4293 79.6769 74.7057 79.9865 74.9068C80.2961 75.1079 80.6517 75.2271 81.02 75.2532C84.4 74.4934 87.74 73.5336 91.39 72.5638C90.22 68.5647 89.19 65.0255 88.14 61.4263L76.55 64.3456ZM27.17 75.4932L30.29 64.1657L18.63 61.1164L15.49 72.3339L27.17 75.4932ZM66.99 29.2935L78.67 26.1942L75.44 14.9567L63.8 18.096C64.89 22.0551 65.88 25.5243 66.95 29.2935H66.99ZM30.41 38.5714L27.41 27.2139L15.61 30.2132L18.84 41.3908L30.41 38.5714ZM40.1 73.6136L28.26 76.6129C29.41 80.612 30.41 84.0212 31.51 87.7904L43.12 84.8611L40.1 73.6136ZM76.62 38.7713L88.37 41.6307C89.37 38.3115 90.26 35.4121 90.95 32.4528C91.11 31.7629 90.62 30.3232 90.14 30.1733C86.82 29.1735 83.41 28.3937 79.81 27.4939C78.71 31.393 77.71 34.8722 76.58 38.7713H76.62ZM78.47 76.7629L66.6 73.7635L63.6 85.071L75.23 87.9104L78.47 76.7629ZM97.32 51.5785L88.9 43.5803L80.9 51.3286L88.51 59.9766L97.32 51.5785ZM61.19 17.5861L53.79 9.05798L45.29 17.716L53.88 25.8842L61.19 17.5861ZM91.44 26.0742V15.1966H79.99V26.0642L91.44 26.0742ZM26.83 87.8104V76.8129H15.54V87.8104H26.83ZM61.89 85.351L53.04 76.8928L45.26 85.7509L53.37 93.4692L61.89 85.351ZM49.89 7.00843L39.71 1.41968L33.84 11.1675L44.02 16.7862L49.89 7.00843ZM99.61 47.9993L105.47 38.2015L95.3 32.6127L89.46 42.3606L99.61 47.9993ZM11.61 70.2643L17.5 60.5165L7.32999 54.9477L1.47998 64.6256L11.61 70.2643ZM99.46 55.1877L89.34 60.9264L95.24 70.6343L105.32 64.9355L99.46 55.1877ZM33.46 91.6395L39.34 101.357L49.41 95.6887L43.59 85.9508L33.46 91.6395ZM73.03 91.6395L62.83 86.0008C60.77 89.46 58.95 92.5293 57.02 95.7886L67.15 101.347L73.03 91.6395ZM63.2 16.8363L73.39 11.1675L67.48 1.41968L57.4 7.11841L63.2 16.8363ZM17.54 41.9106L11.66 32.1828L1.50998 37.8116L7.42999 47.5394C10.92 45.6898 14.06 43.9402 17.58 41.9706L17.54 41.9106ZM91.01 76.9028H79.81V87.9004H91.01V76.9028ZM15.71 25.7243H26.98V14.9966H15.71V25.7243Z" fill="black"/>
</mask>
<g mask="url(#mask0_373_226)">
<rect x="-44" y="-20.1248" width="194" height="148" fill="white"/>
</g>
</svg>
