<svg width="70" height="69" viewBox="0 0 70 69" fill="none" xmlns="http://www.w3.org/2000/svg">
<path fill-rule="evenodd" clip-rule="evenodd" d="M13.8687 48.3C14.0696 48.0322 14.33 47.8149 14.6294 47.6651C14.9288 47.5154 15.259 47.4375 15.5937 47.4375H26.3752C26.9471 47.4375 27.4955 47.6647 27.8999 48.0691C28.3043 48.4734 28.5315 49.0219 28.5315 49.5938C28.5315 50.1657 28.3043 50.7141 27.8999 51.1185C27.4955 51.5229 26.9471 51.7501 26.3752 51.7501H16.6719L6.96857 64.6878H63.0321L53.3288 51.7501H43.6255C43.0536 51.7501 42.5052 51.5229 42.1008 51.1185C41.6964 50.7141 41.4692 50.1657 41.4692 49.5938C41.4692 49.0219 41.6964 48.4734 42.1008 48.0691C42.5052 47.6647 43.0536 47.4375 43.6255 47.4375H54.407C54.7417 47.4375 55.0719 47.5154 55.3713 47.6651C55.6707 47.8149 55.9311 48.0322 56.132 48.3L69.0697 65.5503C69.31 65.8707 69.4563 66.2516 69.4923 66.6505C69.5283 67.0493 69.4524 67.4503 69.2734 67.8084C69.0943 68.1666 68.819 68.4678 68.4783 68.6784C68.1377 68.8889 67.7452 69.0004 67.3447 69.0004H2.65599C2.25554 69.0004 1.863 68.8889 1.52236 68.6784C1.18172 68.4678 0.906428 68.1666 0.727342 67.8084C0.548255 67.4503 0.472446 67.0493 0.508409 66.6505C0.544371 66.2516 0.690685 65.8707 0.930954 65.5503L13.8687 48.3Z" fill="white"/>
<path fill-rule="evenodd" clip-rule="evenodd" d="M35.0004 4.31098C33.3014 4.31098 31.619 4.64563 30.0493 5.29581C28.4797 5.94599 27.0534 6.89898 25.852 8.10036C24.6506 9.30174 23.6977 10.728 23.0475 12.2977C22.3973 13.8673 22.0626 15.5497 22.0626 17.2487C22.0626 18.9477 22.3973 20.6301 23.0475 22.1998C23.6977 23.7695 24.6506 25.1957 25.852 26.3971C27.0534 27.5985 28.4797 28.5515 30.0493 29.2016C31.619 29.8518 33.3014 30.1865 35.0004 30.1865C38.4317 30.1865 41.7225 28.8234 44.1488 26.3971C46.5751 23.9708 47.9381 20.68 47.9381 17.2487C47.9381 13.8174 46.5751 10.5267 44.1488 8.10036C41.7225 5.67406 38.4317 4.31098 35.0004 4.31098V4.31098ZM17.7501 17.2487C17.7504 13.929 18.7086 10.6799 20.5097 7.89125C22.3108 5.1026 24.8782 2.89288 27.9041 1.52724C30.9299 0.161596 34.2855 -0.30196 37.5682 0.192195C40.8509 0.686349 43.9213 2.11722 46.411 4.31312C48.9007 6.50902 50.7039 9.37667 51.6042 12.572C52.5045 15.7673 52.4637 19.1545 51.4867 22.3272C50.5097 25.4999 48.638 28.3233 46.0962 30.4586C43.5543 32.5939 40.4504 33.9504 37.1567 34.3654V58.2183C37.1567 58.7901 36.9295 59.3386 36.5251 59.743C36.1207 60.1474 35.5723 60.3745 35.0004 60.3745C34.4285 60.3745 33.88 60.1474 33.4757 59.743C33.0713 59.3386 32.8441 58.7901 32.8441 58.2183V34.3697C28.6737 33.8443 24.8386 31.8142 22.0593 28.6608C19.2799 25.5075 17.7476 21.4478 17.7501 17.2444V17.2487Z" fill="white"/>
</svg>
